<svg width="current" height="current" viewBox="0 0 16 18" fill="none" xmlns="http://www.w3.org/2000/svg">
<path d="M3.41867 4.81266C3.65404 2.45903 5.63457 0.666672 7.99994 0.666672C10.3653 0.666672 12.3458 2.45903 12.5812 4.81266L12.8201 7.20111C12.9382 8.38232 13.3443 9.51651 14.0028 10.5042L14.7204 11.5807C15.2191 12.3288 15.4685 12.7028 15.4647 13.0123C15.4607 13.3379 15.2984 13.6412 15.0297 13.8252C14.7743 14 14.3247 14 13.4256 14H2.5743C1.67518 14 1.22562 14 0.970229 13.8252C0.701516 13.6412 0.539206 13.3379 0.535199 13.0123C0.531391 12.7028 0.780762 12.3288 1.2795 11.5807L1.99712 10.5042C2.6556 9.51651 3.06171 8.38232 3.17983 7.20111L3.41867 4.81266Z" fill="#555555"/>
<path fill-rule="evenodd" clip-rule="evenodd" d="M9.20294 17.396C8.83719 17.4662 8.4158 17.5 7.99994 17.5C7.58408 17.5 7.16269 17.4662 6.79694 17.396C6.6141 17.3609 6.43161 17.3142 6.26373 17.2514C6.11309 17.1951 5.89541 17.0973 5.70787 16.9224C5.30405 16.5456 5.28213 15.9128 5.65889 15.509C6.00812 15.1347 6.57732 15.0885 6.98024 15.3838C6.99509 15.3888 7.01517 15.395 7.04104 15.4019C7.07715 15.4116 7.1213 15.4218 7.17373 15.4318C7.39013 15.4733 7.68202 15.5 7.99994 15.5C8.31786 15.5 8.60975 15.4733 8.82614 15.4318C8.87858 15.4218 8.92273 15.4116 8.95884 15.4019C8.9847 15.395 9.00479 15.3888 9.01964 15.3838C9.42256 15.0885 9.99176 15.1347 10.341 15.509C10.7178 15.9128 10.6958 16.5456 10.292 16.9224C10.1045 17.0973 9.88679 17.1951 9.73615 17.2514C9.56827 17.3142 9.38578 17.3609 9.20294 17.396Z" fill="current"/>
</svg>
