<svg width="18" height="18" viewBox="0 0 18 18" fill="none" xmlns="http://www.w3.org/2000/svg">
<path fill-rule="evenodd" clip-rule="evenodd" d="M0 9C0 4.02944 4.02944 0 9 0C13.9706 0 18 4.02944 18 9V14.1199C18 14.5185 18 14.8624 17.9823 15.1476C17.9637 15.4476 17.9228 15.7483 17.8108 16.0484C17.5068 16.8637 16.8637 17.5068 16.0484 17.8108C15.7483 17.9228 15.4476 17.9637 15.1476 17.9823C14.8624 18 14.5185 18 14.1199 18H9C4.02944 18 0 13.9706 0 9ZM9 2C5.13401 2 2 5.13401 2 9C2 12.866 5.13401 16 9 16H14.0909C14.5266 16 14.8079 15.9996 15.0237 15.9862C15.2315 15.9733 15.3115 15.9511 15.3495 15.9369C15.6212 15.8356 15.8356 15.6212 15.9369 15.3495C15.9511 15.3115 15.9733 15.2315 15.9862 15.0237C15.9996 14.8079 16 14.5266 16 14.0909V9C16 5.13401 12.866 2 9 2Z" fill="#666666"/>
<path fill-rule="evenodd" clip-rule="evenodd" d="M5 8C5 7.44772 5.44772 7 6 7H12C12.5523 7 13 7.44772 13 8C13 8.55228 12.5523 9 12 9H6C5.44772 9 5 8.55228 5 8Z" fill="#666666"/>
<path fill-rule="evenodd" clip-rule="evenodd" d="M8 12C8 11.4477 8.44772 11 9 11H12C12.5523 11 13 11.4477 13 12C13 12.5523 12.5523 13 12 13H9C8.44772 13 8 12.5523 8 12Z" fill="#666666"/>
</svg>
