<svg width="17" height="18" viewBox="0 0 17 18" fill="none" xmlns="http://www.w3.org/2000/svg">
<path fill-rule="evenodd" clip-rule="evenodd" d="M6 2C6 0.895431 6.89543 0 8 0H9C10.6569 0 12 1.34315 12 3V7H13.7655C15.5535 7 16.9446 8.5542 16.7471 10.3313L16.1916 15.3313C16.0228 16.8506 14.7386 18 13.2099 18H9.41421C8.88378 18 8.37507 17.7893 8 17.4142L7.58579 17H5C4.97566 17 4.95153 16.9991 4.92763 16.9974C4.90197 16.9991 4.87609 17 4.85 17H2C0.895431 17 0 16.1046 0 15V9C0 7.89543 0.895431 7 2 7H4.46482L6 4.69722V2ZM6 8.30278V15H7.58579C8.11622 15 8.62493 15.2107 9 15.5858L9.41421 16H13.2099C13.7195 16 14.1475 15.6169 14.2038 15.1104L14.7594 10.1104C14.8252 9.51807 14.3615 9 13.7655 9H9C8.44772 9 8 8.55228 8 8C8 7.44772 8.44772 7 9 7H10V3C10 2.44772 9.55228 2 9 2H8V4.69722C8 5.09207 7.88312 5.47809 7.6641 5.80662L6 8.30278ZM4 9H2V15H4V9Z" fill="#666666"/>
</svg>
