<svg width="18" height="21" viewBox="0 0 18 21" fill="none" xmlns="http://www.w3.org/2000/svg">
<path d="M0.593077 6.65772C0.25 7.40364 0.25 8.25224 0.25 9.94943V15.2499C0.25 17.6069 0.25 18.7855 0.982233 19.5177C1.67456 20.21 2.76584 20.2477 4.875 20.2498V14C4.875 12.7574 5.88236 11.75 7.125 11.75H10.875C12.1176 11.75 13.125 12.7574 13.125 14V20.2498C15.2342 20.2477 16.3254 20.21 17.0178 19.5177C17.75 18.7855 17.75 17.6069 17.75 15.2499V9.94943C17.75 8.25224 17.75 7.40364 17.4069 6.65772C17.0638 5.91179 16.4195 5.35953 15.1309 4.25501L13.8809 3.18358C11.5518 1.18717 10.3872 0.188965 9 0.188965C7.61278 0.188965 6.44821 1.18717 4.11906 3.18358L2.86906 4.25501C1.58046 5.35953 0.936153 5.91179 0.593077 6.65772Z" fill="current"/>
<path d="M11.125 20.2499V14C11.125 13.8619 11.0131 13.75 10.875 13.75H7.125C6.98693 13.75 6.875 13.8619 6.875 14V20.2499H11.125Z" fill="current"/>
</svg>
