<svg viewBox="0 0 21 21" fill="none" xmlns="http://www.w3.org/2000/svg">
<path fill-rule="evenodd" clip-rule="evenodd" d="M9.05184 0.125001H11.9482C13.7716 0.124973 15.2414 0.124951 16.3973 0.280365C17.5975 0.44172 18.608 0.786912 19.4105 1.58947C20.2131 2.39202 20.5583 3.40252 20.7196 4.60267C20.8751 5.75863 20.875 7.2284 20.875 9.05186V11.9481C20.875 13.7716 20.8751 15.2414 20.7196 16.3973C20.5583 17.5975 20.2131 18.608 19.4105 19.4105C18.608 20.2131 17.5975 20.5583 16.3973 20.7196C15.2414 20.8751 13.7716 20.875 11.9481 20.875H9.05186C7.2284 20.875 5.75863 20.8751 4.60267 20.7196C3.40252 20.5583 2.39202 20.2131 1.58947 19.4105C0.786912 18.608 0.44172 17.5975 0.280365 16.3973C0.124951 15.2414 0.124973 13.7716 0.125001 11.9482V9.05184C0.124973 7.22838 0.124951 5.75862 0.280365 4.60267C0.441721 3.40252 0.786912 2.39202 1.58947 1.58947C2.39202 0.786912 3.40252 0.441721 4.60267 0.280365C5.75862 0.124951 7.22838 0.124973 9.05184 0.125001ZM4.86916 2.26253C3.89079 2.39407 3.3727 2.63466 3.00368 3.00368C2.63466 3.3727 2.39407 3.89079 2.26253 4.86916C2.12713 5.8763 2.125 7.21111 2.125 9.125V11.875C2.125 13.7889 2.12713 15.1237 2.26253 16.1308C2.39407 17.1092 2.63466 17.6273 3.00368 17.9963C3.3727 18.3653 3.8908 18.6059 4.86916 18.7375C5.8763 18.8729 7.21111 18.875 9.125 18.875H11.875C13.7889 18.875 15.1237 18.8729 16.1308 18.7375C17.1092 18.6059 17.6273 18.3653 17.9963 17.9963C18.3653 17.6273 18.6059 17.1092 18.7375 16.1308C18.8729 15.1237 18.875 13.7889 18.875 11.875V9.125C18.875 7.21111 18.8729 5.8763 18.7375 4.86916C18.6059 3.8908 18.3653 3.3727 17.9963 3.00368C17.6273 2.63466 17.1092 2.39407 16.1308 2.26253C15.1237 2.12713 13.7889 2.125 11.875 2.125H9.125C7.21111 2.125 5.8763 2.12713 4.86916 2.26253Z" fill="current"/>
<path d="M17.8749 12.2939L17.7387 12.1577C17.3065 11.7254 16.9336 11.3525 16.5993 11.0759C16.2455 10.7831 15.8584 10.5313 15.3791 10.4141C14.911 10.2997 14.4223 10.2997 13.9542 10.4141C13.4749 10.5313 13.0878 10.7831 12.734 11.0759C12.3997 11.3525 12.0269 11.7254 11.5946 12.1577L11.5629 12.1894C11.2222 12.5302 11.0214 12.7291 10.8654 12.8556L10.8457 12.8712L10.8333 12.8494C10.7354 12.674 10.6229 12.4147 10.4331 11.9719L10.3531 11.7851C9.96078 10.8697 9.63151 10.1013 9.30157 9.52872C8.96055 8.93691 8.53012 8.39035 7.85432 8.10874C7.47533 7.95081 7.06795 7.87236 6.65742 7.87824C5.92537 7.88872 5.32273 8.23633 4.78632 8.65916C4.30533 9.03829 3.76245 9.57375 3.125 10.2107V11.8749C3.125 12.293 3.1252 12.6793 3.12675 13.0373L4.34241 11.8217C5.10207 11.062 5.60965 10.5568 6.02442 10.2299C6.43252 9.90817 6.60649 9.87917 6.68606 9.87803C6.8229 9.87607 6.95869 9.90222 7.08502 9.95486C7.15847 9.98547 7.30923 10.077 7.56867 10.5273C7.83235 10.9849 8.11599 11.6424 8.53919 12.6299L8.613 12.8021C8.77828 13.1879 8.93174 13.5461 9.08701 13.8242C9.25044 14.117 9.49066 14.4644 9.8994 14.6815C10.2528 14.8691 10.6543 14.9464 11.0521 14.9034C11.5122 14.8537 11.8643 14.6204 12.1248 14.4092C12.3722 14.2087 12.6477 13.9331 12.9445 13.6363L12.9771 13.6037C13.4501 13.1307 13.7562 12.826 14.0091 12.6168C14.2506 12.4169 14.3649 12.3726 14.4292 12.3569C14.5852 12.3188 14.7481 12.3188 14.9042 12.3569C14.9684 12.3726 15.0828 12.4169 15.3243 12.6168C15.5771 12.826 15.8833 13.1307 16.3562 13.6037L17.8285 15.0759C17.8682 14.3507 17.8741 13.453 17.8749 12.2939Z" fill="current"/>
<path d="M16.75 5.8125C16.75 6.67545 16.0504 7.375 15.1875 7.375C14.3246 7.375 13.625 6.67545 13.625 5.8125C13.625 4.94956 14.3246 4.25 15.1875 4.25C16.0504 4.25 16.75 4.94956 16.75 5.8125Z" fill="current"/>
</svg>
