<svg width="18" height="20" viewBox="0 0 18 20" fill="none" xmlns="http://www.w3.org/2000/svg">
<path d="M14 5C14 7.76142 11.7614 10 8.99997 10C6.23855 10 3.99997 7.76142 3.99997 5C3.99997 2.23858 6.23855 0 8.99997 0C11.7614 0 14 2.23858 14 5Z" fill="current"/>
<path d="M0.973481 15.5296C1.79787 12.7797 4.5217 11.25 7.39255 11.25H10.6074C13.4782 11.25 16.2021 12.7797 17.0265 15.5296C17.3465 16.5971 17.6102 17.786 17.7086 19.001C17.7531 19.5514 17.3023 20 16.75 20H1.24997C0.697686 20 0.246795 19.5514 0.291375 19.001C0.389764 17.786 0.653455 16.5971 0.973481 15.5296Z" fill="current"/>
</svg>
