<svg width="22" height="20" viewBox="0 0 22 20" fill="none" xmlns="http://www.w3.org/2000/svg">
<path fill-rule="evenodd" clip-rule="evenodd" d="M1.04537 0.87868C0.166687 1.75736 0.166687 3.17157 0.166687 6V13.5C0.166687 16.3284 0.166687 17.7426 1.04537 18.6213C1.92405 19.5 3.33826 19.5 6.16668 19.5H15.8334C18.6618 19.5 20.076 19.5 20.9547 18.6213C21.8334 17.7426 21.8334 16.3284 21.8334 13.5V6C21.8334 3.17157 21.8334 1.75736 20.9547 0.87868C20.076 0 18.6618 0 15.8334 0H6.16669C3.33826 0 1.92405 0 1.04537 0.87868ZM15.3334 5.5C15.8856 5.5 16.3334 5.94772 16.3334 6.5V15.1667C16.3334 15.719 15.8856 16.1667 15.3334 16.1667C14.7811 16.1667 14.3334 15.719 14.3334 15.1667V6.5C14.3334 5.94772 14.7811 5.5 15.3334 5.5ZM7.66669 8.66667C7.66669 8.11438 7.21897 7.66667 6.66669 7.66667C6.1144 7.66667 5.66669 8.11438 5.66669 8.66667L5.66669 15.1667C5.66669 15.719 6.1144 16.1667 6.66669 16.1667C7.21897 16.1667 7.66669 15.719 7.66669 15.1667L7.66669 8.66667ZM12 10.8333C12 10.281 11.5523 9.83333 11 9.83333C10.4477 9.83333 10 10.281 10 10.8333V15.1667C10 15.719 10.4477 16.1667 11 16.1667C11.5523 16.1667 12 15.719 12 15.1667V10.8333Z" fill="current"/>
</svg>
